<svg xmlns="http://www.w3.org/2000/svg" version="1.1" xmlns:xlink="http://www.w3.org/1999/xlink" xmlns:svgjs="http://svgjs.dev/svgjs" width="2000" height="666" viewBox="0 0 2000 666"><g transform="matrix(1,0,0,1,-1.2121212121212466,0.11551274366490816)"><svg viewBox="0 0 396 132" data-background-color="#ffffff" preserveAspectRatio="xMidYMid meet" height="666" width="2000" xmlns="http://www.w3.org/2000/svg" xmlns:xlink="http://www.w3.org/1999/xlink"><g id="tight-bounds" transform="matrix(1,0,0,1,0.2400000000000091,-0.02289441766330924)"><svg viewBox="0 0 395.52 132.0457888353266" height="132.0457888353266" width="395.52"><g><svg viewBox="0 0 642.4627361904325 214.48851839999998" height="132.0457888353266" width="395.52"><g transform="matrix(1,0,0,1,246.9427361904325,12.025556829350876)"><svg viewBox="0 0 395.52 190.43740474129822" height="190.43740474129822" width="395.52"><g id="textblocktransform"><svg viewBox="0 0 395.52 190.43740474129822" height="190.43740474129822" width="395.52" id="textblock"><g><svg viewBox="0 0 395.52 137.4736008337676" height="137.4736008337676" width="395.52"><g transform="matrix(1,0,0,1,0,0)"><svg width="395.52" viewBox="2.08 -38.16 140.53 48.849999999999994" height="137.4736008337676" data-palette-color="#000000"><path d="M22.97-8.33L23.54-2.37Q20.8 0.37 14.97 0.37L14.97 0.37Q9.3 0.37 5.71-3.08L5.71-3.08Q2.08-6.57 2.08-12.35L2.08-12.35Q2.08-18.24 5.66-22.02L5.66-22.02Q9.47-26 15.84-26L15.84-26Q20.36-26 23.41-24.02L23.41-24.02 22.44-17.77 22.27-17.8Q21.09-19.21 19.8-19.65L19.8-19.65Q17.7-20.39 15.6-20.39 13.5-20.39 12.3-19.85 11.11-19.31 10.25-18.36L10.25-18.36Q8.54-16.41 8.54-13.18L8.54-13.18Q8.54-7.47 12.5-5.71L12.5-5.71Q13.87-5.13 15.39-5.13 16.92-5.13 18.05-5.4 19.19-5.66 20.12-6.13L20.12-6.13Q22.09-7.1 22.8-8.4L22.8-8.4 22.97-8.33ZM35.25-16.97L35.25-2.73Q35.25-0.63 35.35 0L35.35 0 29.27 0 29.27-34.91 35.25-34.91 35.25-23.61Q38.4-26 41.75-26L41.75-26Q45.85-26 48.34-23.29L48.34-23.29Q50.78-20.58 50.78-16.11L50.78-16.11 50.78-6.4Q50.78-2.27 50.9-1.44 51.02-0.61 51.23-0.37 51.44-0.12 51.58 0.07L51.58 0.07 51.54 0.17Q49.56 0 48.65 0L48.65 0 46.92 0Q46.12 0 44.8 0.07L44.8 0.07 44.8-14.06Q44.8-17.43 43.31-19.04L43.31-19.04Q42.19-20.26 40.26-20.26L40.26-20.26Q37.4-20.26 35.25-16.97L35.25-16.97ZM62.47-28.83L56.98-32.79Q58.93-35.84 61.05-38.16L61.05-38.16 66.3-34.03Q65.25-32.74 64.35-31.49L64.35-31.49Q64.35-31.49 62.47-28.83L62.47-28.83ZM63.4-25.51L63.4-2.73Q63.4-0.63 63.5 0L63.5 0 57.29 0 57.29-25.51 63.4-25.51ZM81.61-5.37L81.61-5.37Q84.76-5.37 85.93-7.01L85.93-7.01 86.13-7.01 86.2-1.34Q85-0.15 81.76 0.24L81.76 0.24Q80.88 0.37 79.57 0.37 78.26 0.37 76.74-0.12 75.21-0.61 74.14-1.71L74.14-1.71Q71.92-3.98 71.92-8.81L71.92-8.81 71.92-19.9 68.23-19.9Q68.21-20.61 68.21-21.34L68.21-21.34 68.21-25.1Q68.21-25.51 68.23-25.51L68.23-25.51 71.92-25.51 71.92-32.47 77.9-32.47 77.9-25.51 84.61-25.51 84.61-19.9 77.9-19.9 77.9-9.94Q77.9-6.1 80.02-5.57L80.02-5.57Q80.71-5.37 81.61-5.37ZM95.86-28.83L90.37-32.79Q92.32-35.84 94.45-38.16L94.45-38.16 99.7-34.03Q98.65-32.74 97.74-31.49L97.74-31.49Q97.74-31.49 95.86-28.83L95.86-28.83ZM96.79-25.51L96.79-2.73Q96.79-0.63 96.89 0L96.89 0 90.69 0 90.69-25.51 96.79-25.51ZM109.78-22.71L115.86-22.71Q115.66-22 115.66-19.14L115.66-19.14 115.66-16.99 109.78-16.99 109.78 0 103.8 0 103.8-16.99 100.21-16.99Q100.23-18.6 100.26-19.85L100.26-19.85 100.3-22.46 100.3-22.71 103.8-22.71 103.8-24.22Q103.8-30.08 106.53-33.64L106.53-33.64Q109.39-37.33 114.39-37.33L114.39-37.33Q116.52-37.33 117.2-37.04L117.2-37.04 117.22-30.91 117.18-30.79Q116.25-31.71 114.82-31.71 113.39-31.71 112.51-31.24 111.63-30.76 111.02-29.88L111.02-29.88Q109.78-28.13 109.78-25.07L109.78-25.07 109.78-22.71ZM124.33 10.69L118.03 8.5 119.64 7.2Q123.28 4.25 125.67-1.51L125.67-1.51 126.79-4.22 117.44-25.51 124.28-25.51 130.14-10.77 135.58-25.51 142.61-25.51Q141.34-23.75 139.51-18.97L139.51-18.97 135.85-9.91Q128.5 7.37 124.33 10.69L124.33 10.69Z" opacity="1" transform="matrix(1,0,0,1,0,0)" fill="#000000" class="wordmark-text-0" data-fill-palette-color="primary" id="text-0"></path></svg></g></svg></g><g transform="matrix(1,0,0,1,0,169.9278186242001)"><svg viewBox="0 0 232.20979200000002 20.5095861170981" height="20.5095861170981" width="232.20979200000002"><g transform="matrix(1,0,0,1,0,0)"><svg width="232.20979200000002" viewBox="0 -32.4 449.99 39.75" height="20.5095861170981" data-palette-color="#000000"><path d="M14.2-31.05L23.2-31.05 15.8-9.6 15.8 0 7.3 0 7.3-9.6 0-31.05 9.4-31.05 11.65-20.95 12.05-20.95 14.2-31.05ZM24.3-12.08Q24.3-18.65 26.82-21.6 29.35-24.55 34.72-24.55 40.1-24.55 42.55-21.65 45-18.75 45-12.13 45-5.5 42.6-2.5 40.2 0.5 34.75 0.5 29.3 0.5 26.8-2.5 24.3-5.5 24.3-12.08ZM36.32-16.8Q36-17.8 34.7-17.8 33.4-17.8 33.05-16.8 32.7-15.8 32.7-12.6L32.7-12.6 32.7-11.4Q32.7-7.85 33.05-6.8 33.4-5.75 34.67-5.75 35.95-5.75 36.3-6.8 36.65-7.85 36.65-11.1L36.65-11.1 36.65-12.55Q36.65-15.8 36.32-16.8ZM53.55 0.5L53.55 0.5Q47.6 0.5 47.6-6.1L47.6-6.1 47.6-23.95 56.1-23.95 56.1-8.15Q56.1-6.9 57.2-6.9L57.2-6.9Q58.6-6.9 59.55-7.6L59.55-7.6 59.55-23.95 67.95-23.95 67.95-0.1 60-0.1 60-1.85 59.8-1.85Q57.05 0.5 53.55 0.5ZM79.24-13.45L79.24-13.45 79.24 0 70.94 0 70.94-23.95 78.24-23.95 78.74-22.5 78.94-22.5Q80.09-23.8 81.27-24.18 82.44-24.55 85.09-24.55L85.09-24.55 84.74-16.55 82.44-16.55Q80.49-16.55 79.87-15.95 79.24-15.35 79.24-13.45ZM105.49-15.23Q105.49-10.8 106.36-8.93 107.24-7.05 109.24-7.05 111.24-7.05 114.89-8L114.89-8 116.19-0.95Q112.24 0.5 108.24 0.5L108.24 0.5Q102.24 0.5 99.51-3.48 96.79-7.45 96.79-15.33 96.79-23.2 99.64-27.38 102.49-31.55 108.94-31.55L108.94-31.55Q112.74-31.55 116.19-29.95L116.19-29.95 114.84-22.2Q110.94-23.5 109.39-23.5L109.39-23.5Q107.19-23.5 106.34-21.58 105.49-19.65 105.49-15.23ZM125.94-22.2L126.14-22.2Q128.89-24.55 132.09-24.55 135.29-24.55 136.61-23.03 137.94-21.5 137.94-18.45L137.94-18.45 137.94 0 129.44 0 129.44-15.6Q129.44-16.85 128.34-16.85L128.34-16.85Q126.94-16.85 125.99-16.15L125.99-16.15 125.99 0 117.59 0 117.59-32.05 125.94-32.05 125.94-22.2ZM149.38-23.7L149.38 0 141.13 0 141.13-23.7 149.38-23.7ZM141.78-25.6Q140.73-26.5 140.73-28.5 140.73-30.5 141.78-31.45 142.83-32.4 145.23-32.4 147.63-32.4 148.68-31.45 149.73-30.5 149.73-28.53 149.73-26.55 148.68-25.63 147.63-24.7 145.23-24.7 142.83-24.7 141.78-25.6ZM166.28-6.6L166.03 0.05Q162.33 0.5 159.61 0.5 156.88 0.5 155.36-0.93 153.83-2.35 153.83-5.85L153.83-5.85 153.83-17.45 151.43-17.45 151.43-23.65 154.23-23.65 154.68-28.25 162.23-28.25 162.23-23.65 166.68-23.65 166.33-17.45 162.18-17.45 162.18-7.5Q162.18-6.45 163.18-6.45L163.18-6.45Q163.28-6.45 166.28-6.6L166.28-6.6ZM181.18-31.05L189.58-31.05 189.58-6.25Q189.58-2.4 187.83-0.95 186.08 0.5 181.38 0.5L181.38 0.5 178.83 0.5 178.18-6.3 179.88-6.3Q180.73-6.3 180.95-6.53 181.18-6.75 181.18-7.5L181.18-7.5 181.18-31.05ZM192.87-12.08Q192.87-18.65 195.4-21.6 197.92-24.55 203.3-24.55 208.67-24.55 211.12-21.65 213.57-18.75 213.57-12.13 213.57-5.5 211.17-2.5 208.77 0.5 203.32 0.5 197.87 0.5 195.37-2.5 192.87-5.5 192.87-12.08ZM204.9-16.8Q204.57-17.8 203.27-17.8 201.97-17.8 201.62-16.8 201.27-15.8 201.27-12.6L201.27-12.6 201.27-11.4Q201.27-7.85 201.62-6.8 201.97-5.75 203.25-5.75 204.52-5.75 204.87-6.8 205.22-7.85 205.22-11.1L205.22-11.1 205.22-12.55Q205.22-15.8 204.9-16.8ZM222.12 0.5L222.12 0.5Q216.17 0.5 216.17-6.1L216.17-6.1 216.17-23.95 224.67-23.95 224.67-8.15Q224.67-6.9 225.77-6.9L225.77-6.9Q227.17-6.9 228.12-7.6L228.12-7.6 228.12-23.95 236.52-23.95 236.52-0.1 228.57-0.1 228.57-1.85 228.37-1.85Q225.62 0.5 222.12 0.5ZM247.82-13.45L247.82-13.45 247.82 0 239.52 0 239.52-23.95 246.82-23.95 247.32-22.5 247.52-22.5Q248.67-23.8 249.84-24.18 251.02-24.55 253.67-24.55L253.67-24.55 253.32-16.55 251.02-16.55Q249.07-16.55 248.44-15.95 247.82-15.35 247.82-13.45ZM263.32-22.2L263.52-22.2Q266.27-24.55 269.57-24.55 272.87-24.55 274.19-23.03 275.52-21.5 275.52-18.45L275.52-18.45 275.52 0 267.02 0 267.02-15.6Q267.02-16.85 265.92-16.85L265.92-16.85Q264.52-16.85 263.57-16.15L263.57-16.15 263.57 0 255.17 0 255.17-23.95 262.82-23.95 263.32-22.2ZM288.51-17.4L288.51-17.4Q287.21-17.4 286.81-16.53 286.41-15.65 286.41-13.85L286.41-13.85 290.76-13.85 290.76-15.05Q290.76-17.4 288.51-17.4ZM288.71-24.55L288.71-24.55Q293.86-24.55 296.09-22.08 298.31-19.6 298.31-15L298.31-15Q298.31-14.4 297.96-9.6L297.96-9.6 286.56-9.6Q286.56-5.85 290.01-5.85L290.01-5.85Q291.66-5.85 296.46-7L296.46-7 297.16-0.8Q292.96 0.5 288.76 0.5L288.76 0.5Q283.61 0.5 280.86-2.88 278.11-6.25 278.11-12.05L278.11-12.05Q278.11-24.55 288.71-24.55ZM313.16-23.95L321.36-23.95 315.16 0.7Q314.21 4.4 312.36 5.88 310.51 7.35 306.31 7.35L306.31 7.35 301.31 7.35 300.56 0.9 303.36 0.9Q305.06 0.9 305.06-0.45L305.06-0.45Q305.06-0.75 304.86-1.75L304.86-1.75 299.11-23.95 308.01-23.95 310.26-9 310.71-9 313.16-23.95ZM335.93-27.8Q338.81-31.55 345.36-31.55 351.91-31.55 354.73-27.85 357.56-24.15 357.56-15.83 357.56-7.5 354.66-3.5 351.76 0.5 345.26 0.5 338.76 0.5 335.91-3.45 333.06-7.4 333.06-15.73 333.06-24.05 335.93-27.8ZM348.96-15.8Q348.96-20.4 348.23-22.03 347.51-23.65 345.28-23.65 343.06-23.65 342.41-22.03 341.76-20.4 341.76-15.85L341.76-15.85 341.76-14.65Q341.76-9.8 342.48-8.28 343.21-6.75 345.43-6.75 347.66-6.75 348.31-8.2 348.96-9.65 348.96-14.2L348.96-14.2 348.96-15.8ZM368.4-22.2L368.6-22.2Q371.35-24.55 374.65-24.55 377.95-24.55 379.28-23.03 380.6-21.5 380.6-18.45L380.6-18.45 380.6 0 372.1 0 372.1-15.6Q372.1-16.85 371-16.85L371-16.85Q369.6-16.85 368.65-16.15L368.65-16.15 368.65 0 360.25 0 360.25-23.95 367.9-23.95 368.4-22.2ZM383.6-5.5L383.6-5.5 383.6-32.05 391.85-32.05 391.85-8.15Q391.85-7.3 392.23-6.95 392.6-6.6 393.55-6.6L393.55-6.6 392.9 0.5 390.15 0.5Q386.85 0.5 385.23-0.88 383.6-2.25 383.6-5.5ZM403.7-23.7L403.7 0 395.45 0 395.45-23.7 403.7-23.7ZM396.1-25.6Q395.05-26.5 395.05-28.5 395.05-30.5 396.1-31.45 397.15-32.4 399.55-32.4 401.95-32.4 403-31.45 404.05-30.5 404.05-28.53 404.05-26.55 403-25.63 401.95-24.7 399.55-24.7 397.15-24.7 396.1-25.6ZM415-22.2L415.2-22.2Q417.95-24.55 421.25-24.55 424.55-24.55 425.87-23.03 427.2-21.5 427.2-18.45L427.2-18.45 427.2 0 418.7 0 418.7-15.6Q418.7-16.85 417.6-16.85L417.6-16.85Q416.2-16.85 415.25-16.15L415.25-16.15 415.25 0 406.85 0 406.85-23.95 414.5-23.95 415-22.2ZM440.19-17.4L440.19-17.4Q438.89-17.4 438.49-16.53 438.09-15.65 438.09-13.85L438.09-13.85 442.44-13.85 442.44-15.05Q442.44-17.4 440.19-17.4ZM440.39-24.55L440.39-24.55Q445.54-24.55 447.77-22.08 449.99-19.6 449.99-15L449.99-15Q449.99-14.4 449.64-9.6L449.64-9.6 438.24-9.6Q438.24-5.85 441.69-5.85L441.69-5.85Q443.34-5.85 448.14-7L448.14-7 448.84-0.8Q444.64 0.5 440.44 0.5L440.44 0.5Q435.29 0.5 432.54-2.88 429.79-6.25 429.79-12.05L429.79-12.05Q429.79-24.55 440.39-24.55Z" opacity="1" transform="matrix(1,0,0,1,0,0)" fill="#000000" class="slogan-text-1" data-fill-palette-color="secondary" id="text-1"></path></svg></g></svg></g></svg></g></svg></g><g><svg viewBox="0 0 214.48851839999998 214.48851839999998" height="214.48851839999998" width="214.48851839999998"><g><svg></svg></g><g id="icon-0"><svg viewBox="0 0 214.48851839999998 214.48851839999998" height="214.48851839999998" width="214.48851839999998"><g><rect width="195.02567136" height="195.02567136" x="9.731423519999993" y="9.731423519999993" fill="#000000" data-fill-palette-color="accent"></rect><rect width="195.02567136" height="195.02567136" x="19.462847039999993" y="-5.329070518200751e-15" fill="#000000" opacity="0.5" data-fill-palette-color="accent"></rect></g><g transform="matrix(1,0,0,1,27.828583898642094,27.80406719999999)"><svg viewBox="0 0 158.8313506027158 158.880384" height="158.880384" width="158.8313506027158"><g><svg xmlns="http://www.w3.org/2000/svg" xmlns:xlink="http://www.w3.org/1999/xlink" version="1.1" x="0" y="0" viewBox="20.225 20.254545454545458 59.52707772727418 59.545454545454554" enable-background="new 0 0 100 100" xml:space="preserve" height="158.880384" width="158.8313506027158" class="icon-cg-0" data-fill-palette-color="quaternary" id="cg-0"><path d="M79.7 31.8c0.3-3.4-0.7-6.4-2.9-8.6-3.6-3.6-9.5-3.9-14.5-0.9-1.1 0.6-1.4 2-0.7 3.1 0.6 1.1 2 1.4 3.1 0.7 3.2-2 6.9-1.9 9 0.2 1.2 1.2 1.8 3 1.6 5-0.2 2.2-1.3 4.3-3 6.1-3.4 3.4-8.4 4.1-11.1 1.4l0 0c-0.8-0.8-1.9-1.2-3-1.2-1.1 0-2.2 0.4-3 1.2-1.7 1.7-1.7 4.4 0 6 0.8 0.8 1.9 1.2 3 1.2 1.1 0 2.2-0.4 3-1.2 0.2-0.2 0.3-0.4 0.5-0.6 1.2 0.4 2.5 0.6 3.8 0.6 0.4 0 0.9 0 1.3-0.1l0.4 5.5c0.1 1.3-0.4 2.5-1.3 3.4L45.2 74.4c-1.2 1.2-3 1.2-4.2 0L25.6 59c-1.2-1.2-1.2-3 0-4.2l20.7-20.7c0.9-0.9 2.1-1.3 3.4-1.3L68 34.1c1.2 0.1 2.3-0.9 2.4-2.1 0.1-1.2-0.9-2.3-2.1-2.4l-18.4-1.2c-2.5-0.2-5 0.8-6.8 2.6L22.4 51.7c-2.9 2.9-2.9 7.6 0 10.5l15.4 15.4c1.5 1.5 3.4 2.2 5.3 2.2 1.9 0 3.8-0.7 5.3-2.2L69 56.9c1.8-1.8 2.7-4.3 2.6-6.8l-0.4-6.5c1.5-0.7 3-1.7 4.3-3C77.9 38.1 79.4 35 79.7 31.8zM58 42C58 42 58 42 58 42L58 42C58 42 58 42 58 42z" fill="#ffffff" data-fill-palette-color="quaternary"></path></svg></g></svg></g></svg></g></svg></g></svg></g><defs></defs></svg><rect width="395.52" height="132.0457888353266" fill="none" stroke="none" visibility="hidden"></rect></g></svg></g></svg>